<mxfile host="65bd71144e">
    <diagram id="-P4JsTlMUECGII5zizb_" name="Seite-2">
        <mxGraphModel dx="1021" dy="790" grid="1" gridSize="10" guides="1" tooltips="1" connect="1" arrows="1" fold="1" page="1" pageScale="1" pageWidth="827" pageHeight="1169" math="0" shadow="0">
            <root>
                <mxCell id="obwBhj8SrD_YZfRNhSHm-0"/>
                <mxCell id="obwBhj8SrD_YZfRNhSHm-1" parent="obwBhj8SrD_YZfRNhSHm-0"/>
                <mxCell id="obwBhj8SrD_YZfRNhSHm-10" style="edgeStyle=none;html=1;exitX=0;exitY=1;exitDx=0;exitDy=0;entryX=0.5;entryY=0;entryDx=0;entryDy=0;endArrow=none;endFill=0;" edge="1" parent="obwBhj8SrD_YZfRNhSHm-1" source="obwBhj8SrD_YZfRNhSHm-2" target="obwBhj8SrD_YZfRNhSHm-4">
                    <mxGeometry relative="1" as="geometry"/>
                </mxCell>
                <mxCell id="obwBhj8SrD_YZfRNhSHm-11" style="edgeStyle=none;html=1;exitX=1;exitY=1;exitDx=0;exitDy=0;entryX=0.5;entryY=0;entryDx=0;entryDy=0;endArrow=none;endFill=0;" edge="1" parent="obwBhj8SrD_YZfRNhSHm-1" source="obwBhj8SrD_YZfRNhSHm-2" target="obwBhj8SrD_YZfRNhSHm-5">
                    <mxGeometry relative="1" as="geometry"/>
                </mxCell>
                <mxCell id="obwBhj8SrD_YZfRNhSHm-12" style="edgeStyle=none;html=1;exitX=1;exitY=0.5;exitDx=0;exitDy=0;entryX=0.5;entryY=0;entryDx=0;entryDy=0;endArrow=none;endFill=0;" edge="1" parent="obwBhj8SrD_YZfRNhSHm-1" source="obwBhj8SrD_YZfRNhSHm-2" target="obwBhj8SrD_YZfRNhSHm-7">
                    <mxGeometry relative="1" as="geometry"/>
                </mxCell>
                <mxCell id="obwBhj8SrD_YZfRNhSHm-2" value="K1" style="ellipse;whiteSpace=wrap;html=1;aspect=fixed;" vertex="1" parent="obwBhj8SrD_YZfRNhSHm-1">
                    <mxGeometry x="120" y="70" width="80" height="80" as="geometry"/>
                </mxCell>
                <mxCell id="obwBhj8SrD_YZfRNhSHm-14" style="edgeStyle=none;html=1;exitX=1;exitY=1;exitDx=0;exitDy=0;entryX=0.5;entryY=0;entryDx=0;entryDy=0;endArrow=none;endFill=0;" edge="1" parent="obwBhj8SrD_YZfRNhSHm-1" source="obwBhj8SrD_YZfRNhSHm-3" target="obwBhj8SrD_YZfRNhSHm-8">
                    <mxGeometry relative="1" as="geometry"/>
                </mxCell>
                <mxCell id="obwBhj8SrD_YZfRNhSHm-15" style="edgeStyle=none;html=1;exitX=1;exitY=0.5;exitDx=0;exitDy=0;entryX=0.5;entryY=0;entryDx=0;entryDy=0;endArrow=none;endFill=0;" edge="1" parent="obwBhj8SrD_YZfRNhSHm-1" source="obwBhj8SrD_YZfRNhSHm-3" target="obwBhj8SrD_YZfRNhSHm-9">
                    <mxGeometry relative="1" as="geometry"/>
                </mxCell>
                <mxCell id="obwBhj8SrD_YZfRNhSHm-16" style="edgeStyle=none;html=1;exitX=1;exitY=0.5;exitDx=0;exitDy=0;endArrow=none;endFill=0;" edge="1" parent="obwBhj8SrD_YZfRNhSHm-1" source="obwBhj8SrD_YZfRNhSHm-3" target="obwBhj8SrD_YZfRNhSHm-17">
                    <mxGeometry relative="1" as="geometry">
                        <mxPoint x="760" y="260" as="targetPoint"/>
                    </mxGeometry>
                </mxCell>
                <mxCell id="obwBhj8SrD_YZfRNhSHm-3" value="K2" style="ellipse;whiteSpace=wrap;html=1;aspect=fixed;" vertex="1" parent="obwBhj8SrD_YZfRNhSHm-1">
                    <mxGeometry x="414" y="70" width="80" height="80" as="geometry"/>
                </mxCell>
                <mxCell id="obwBhj8SrD_YZfRNhSHm-20" style="edgeStyle=none;html=1;exitX=0.5;exitY=1;exitDx=0;exitDy=0;entryX=0;entryY=0;entryDx=0;entryDy=0;endArrow=none;endFill=0;" edge="1" parent="obwBhj8SrD_YZfRNhSHm-1" source="obwBhj8SrD_YZfRNhSHm-4" target="obwBhj8SrD_YZfRNhSHm-18">
                    <mxGeometry relative="1" as="geometry"/>
                </mxCell>
                <mxCell id="obwBhj8SrD_YZfRNhSHm-4" value="x1" style="ellipse;whiteSpace=wrap;html=1;aspect=fixed;" vertex="1" parent="obwBhj8SrD_YZfRNhSHm-1">
                    <mxGeometry x="60" y="260" width="60" height="60" as="geometry"/>
                </mxCell>
                <mxCell id="obwBhj8SrD_YZfRNhSHm-21" style="edgeStyle=none;html=1;exitX=0.5;exitY=1;exitDx=0;exitDy=0;entryX=1;entryY=0;entryDx=0;entryDy=0;endArrow=none;endFill=0;" edge="1" parent="obwBhj8SrD_YZfRNhSHm-1" source="obwBhj8SrD_YZfRNhSHm-5" target="obwBhj8SrD_YZfRNhSHm-18">
                    <mxGeometry relative="1" as="geometry"/>
                </mxCell>
                <mxCell id="obwBhj8SrD_YZfRNhSHm-5" value="/x1" style="ellipse;whiteSpace=wrap;html=1;aspect=fixed;" vertex="1" parent="obwBhj8SrD_YZfRNhSHm-1">
                    <mxGeometry x="200" y="260" width="60" height="60" as="geometry"/>
                </mxCell>
                <mxCell id="obwBhj8SrD_YZfRNhSHm-22" style="edgeStyle=none;html=1;exitX=0.5;exitY=1;exitDx=0;exitDy=0;entryX=0;entryY=0;entryDx=0;entryDy=0;endArrow=none;endFill=0;" edge="1" parent="obwBhj8SrD_YZfRNhSHm-1" source="obwBhj8SrD_YZfRNhSHm-7" target="obwBhj8SrD_YZfRNhSHm-19">
                    <mxGeometry relative="1" as="geometry"/>
                </mxCell>
                <mxCell id="obwBhj8SrD_YZfRNhSHm-7" value="x2" style="ellipse;whiteSpace=wrap;html=1;aspect=fixed;" vertex="1" parent="obwBhj8SrD_YZfRNhSHm-1">
                    <mxGeometry x="354" y="260" width="60" height="60" as="geometry"/>
                </mxCell>
                <mxCell id="obwBhj8SrD_YZfRNhSHm-23" style="edgeStyle=none;html=1;exitX=0.5;exitY=1;exitDx=0;exitDy=0;entryX=1;entryY=0;entryDx=0;entryDy=0;endArrow=none;endFill=0;" edge="1" parent="obwBhj8SrD_YZfRNhSHm-1" source="obwBhj8SrD_YZfRNhSHm-8" target="obwBhj8SrD_YZfRNhSHm-19">
                    <mxGeometry relative="1" as="geometry"/>
                </mxCell>
                <mxCell id="obwBhj8SrD_YZfRNhSHm-8" value="/x2" style="ellipse;whiteSpace=wrap;html=1;aspect=fixed;" vertex="1" parent="obwBhj8SrD_YZfRNhSHm-1">
                    <mxGeometry x="494" y="260" width="60" height="60" as="geometry"/>
                </mxCell>
                <mxCell id="obwBhj8SrD_YZfRNhSHm-9" value="/x2" style="ellipse;whiteSpace=wrap;html=1;aspect=fixed;" vertex="1" parent="obwBhj8SrD_YZfRNhSHm-1">
                    <mxGeometry x="630" y="260" width="60" height="60" as="geometry"/>
                </mxCell>
                <mxCell id="obwBhj8SrD_YZfRNhSHm-17" value="...." style="ellipse;whiteSpace=wrap;html=1;aspect=fixed;" vertex="1" parent="obwBhj8SrD_YZfRNhSHm-1">
                    <mxGeometry x="740" y="260" width="60" height="60" as="geometry"/>
                </mxCell>
                <mxCell id="obwBhj8SrD_YZfRNhSHm-18" value="v1" style="ellipse;whiteSpace=wrap;html=1;aspect=fixed;" vertex="1" parent="obwBhj8SrD_YZfRNhSHm-1">
                    <mxGeometry x="130" y="380" width="60" height="60" as="geometry"/>
                </mxCell>
                <mxCell id="obwBhj8SrD_YZfRNhSHm-19" value="v2" style="ellipse;whiteSpace=wrap;html=1;aspect=fixed;" vertex="1" parent="obwBhj8SrD_YZfRNhSHm-1">
                    <mxGeometry x="424" y="380" width="60" height="60" as="geometry"/>
                </mxCell>
            </root>
        </mxGraphModel>
    </diagram>
</mxfile>